<svg width="52" height="51" viewBox="0 0 52 51" fill="none" xmlns="http://www.w3.org/2000/svg">
<path fill-rule="evenodd" clip-rule="evenodd" d="M51.4187 8.40572C51.9341 9.17868 51.8482 10.2291 51.161 10.9096L26.5133 35.3173C26.2606 35.5674 25.9452 35.7465 25.5995 35.8359L15.3343 38.4911C14.9995 38.5777 14.6544 38.5759 14.3301 38.4942C13.9854 38.4073 13.6643 38.2301 13.4041 37.9725C12.8993 37.4725 12.7 36.7451 12.8804 36.061L15.5617 25.8958C15.6407 25.5963 15.789 25.3004 15.9941 25.0683L40.7331 0.583268C40.9497 0.368824 41.2106 0.208328 41.4944 0.11054C41.7049 0.038034 41.928 0 42.1551 0C42.6884 0 43.2 0.209808 43.5771 0.583268L51.161 8.09332C51.2592 8.19053 51.3451 8.29529 51.4187 8.40572ZM46.895 9.50146L42.1551 4.80767L19.3152 27.4251L17.6394 33.7784L24.0552 32.1189L46.895 9.50146Z" fill="black"/>
<path d="M46.5561 39.5899C47.2892 33.3831 47.5224 27.1329 47.2559 20.8986C47.2431 20.6001 47.3565 20.3096 47.5698 20.0984L50.2064 17.4874C50.5306 17.1664 51.0845 17.3702 51.1148 17.8232C51.6107 25.2303 51.4227 32.671 50.5508 40.0526C49.9166 45.4228 45.5612 49.6314 40.1663 50.2284C30.8713 51.2572 21.2632 51.2572 11.9682 50.2284C6.57326 49.6314 2.2179 45.4228 1.58363 40.0526C0.472123 30.6418 0.472123 21.1347 1.58363 11.7239C2.2179 6.35364 6.57326 2.14511 11.9682 1.54802C19.0194 0.767616 26.2508 0.579229 33.3889 0.982854C33.849 1.00887 34.0587 1.56013 33.7329 1.88279L31.0715 4.51823C30.8605 4.72718 30.5712 4.83939 30.2729 4.82943C24.3032 4.63005 18.2929 4.85563 12.415 5.50618C8.84852 5.9009 5.9916 8.68784 5.57838 12.1865C4.50317 21.29 4.50318 30.4865 5.57838 39.5899C5.9916 43.0886 8.84851 45.8756 12.415 46.2703C21.413 47.2662 30.7214 47.2662 39.7195 46.2703C43.286 45.8756 46.1429 43.0886 46.5561 39.5899Z" fill="black"/>
</svg>
