<svg width="106" height="107" viewBox="0 0 106 107" fill="none" xmlns="http://www.w3.org/2000/svg">
<g filter="url(#filter0_i_556_251)">
<path d="M105.616 53.04C105.616 82.3332 82.1487 106.08 53.2002 106.08C24.2516 106.08 0.78418 82.3332 0.78418 53.04C0.78418 23.7468 24.2516 0 53.2002 0C82.1487 0 105.616 23.7468 105.616 53.04ZM13.8882 53.04C13.8882 75.0099 31.4888 92.82 53.2002 92.82C74.9116 92.82 92.5122 75.0099 92.5122 53.04C92.5122 31.0701 74.9116 13.26 53.2002 13.26C31.4888 13.26 13.8882 31.0701 13.8882 53.04Z" fill="#9CA3DB"/>
</g>
<path d="M72.3937 68.8143H55.8759V41.1517C57.7923 40.3127 59.2639 38.6909 59.9471 36.6966L72.3355 32.5428C73.122 32.279 73.5452 31.4278 73.2815 30.6413L72.327 27.7939C72.0633 27.0074 71.2121 26.5842 70.4256 26.8479L59.3587 30.5578C58.0626 28.3044 55.6591 26.769 52.8727 26.769C48.7263 26.769 45.3646 30.1308 45.3646 34.2771C45.3646 34.599 45.4199 34.9069 45.4594 35.2184L33.4098 39.2587C32.6234 39.5225 32.2001 40.3737 32.4638 41.1602L33.4183 44.0076C33.682 44.7941 34.5332 45.2173 35.3197 44.9536L48.6512 40.4835C49.0332 40.7435 49.4424 40.964 49.8704 41.1517V73.3191C49.8704 74.1488 50.5423 74.8208 51.372 74.8208H72.3946C73.2243 74.8208 73.8962 74.1488 73.8962 73.3191V70.3159C73.8953 69.4863 73.2233 68.8143 72.3937 68.8143ZM82.9031 55.2997C82.9031 53.7812 83.0289 54.4804 74.9211 38.2649C73.2646 34.9528 68.5214 34.9463 66.8621 38.2649C58.6858 54.6193 58.881 53.8291 58.881 55.2997H58.8791C58.8791 59.4461 64.2577 62.8078 70.8921 62.8078C77.5264 62.8078 82.905 59.4461 82.905 55.2997H82.9031ZM64.1348 53.7981L70.8921 40.2836L77.6493 53.7981H64.1348ZM38.8823 50.2778C37.2258 46.9658 32.4826 46.9592 30.8233 50.2778C22.647 66.6323 22.8422 65.842 22.8422 67.3127H22.8403C22.8403 71.459 28.2189 74.8208 34.8533 74.8208C41.4876 74.8208 46.8662 71.459 46.8662 67.3127H46.8643C46.8643 65.7942 46.9901 66.4934 38.8823 50.2778ZM28.096 65.8111L34.8533 52.2965L41.6105 65.8111H28.096Z" fill="#081C15"/>
<defs>
<filter id="filter0_i_556_251" x="0.78418" y="0" width="104.832" height="110.08" filterUnits="userSpaceOnUse" color-interpolation-filters="sRGB">
<feFlood flood-opacity="0" result="BackgroundImageFix"/>
<feBlend mode="normal" in="SourceGraphic" in2="BackgroundImageFix" result="shape"/>
<feColorMatrix in="SourceAlpha" type="matrix" values="0 0 0 0 0 0 0 0 0 0 0 0 0 0 0 0 0 0 127 0" result="hardAlpha"/>
<feOffset dy="5.5"/>
<feGaussianBlur stdDeviation="2"/>
<feComposite in2="hardAlpha" operator="arithmetic" k2="-1" k3="1"/>
<feColorMatrix type="matrix" values="0 0 0 0 0 0 0 0 0 0 0 0 0 0 0 0 0 0 0.5 0"/>
<feBlend mode="normal" in2="shape" result="effect1_innerShadow_556_251"/>
</filter>
</defs>
</svg>
