<svg width="107" height="107" viewBox="0 0 107 107" fill="none" xmlns="http://www.w3.org/2000/svg">
<g filter="url(#filter0_i_556_251)">
<path d="M106.472 53.04C106.472 82.3332 82.7253 106.08 53.4321 106.08C24.1389 106.08 0.39209 82.3332 0.39209 53.04C0.39209 23.7468 24.1389 0 53.4321 0C82.7253 0 106.472 23.7468 106.472 53.04ZM13.6521 53.04C13.6521 75.0099 31.4622 92.82 53.4321 92.82C75.402 92.82 93.2121 75.0099 93.2121 53.04C93.2121 31.0701 75.402 13.26 53.4321 13.26C31.4622 13.26 13.6521 31.0701 13.6521 53.04Z" fill="#9CA3DB"/>
</g>
<path d="M59.4615 41.6519V25.5059C59.4615 24.5147 58.647 23.7119 57.6415 23.7119H54.0015C52.9959 23.7119 52.1815 24.5147 52.1815 25.5059V41.9804C52.7525 41.7809 53.3577 41.6519 53.9981 41.6519H59.4615ZM74.0215 52.4148C74.0203 48.4523 70.7614 45.2399 66.7426 45.2399H53.9867C52.988 45.2399 52.1781 46.0326 52.1781 47.0171V47.0799C52.1781 50.0254 54.6009 52.4159 57.5892 52.4159H61.6C62.7011 52.4159 63.1015 52.8173 63.1015 53.3129V55.1293C63.1015 55.6104 62.6931 56.0017 62.2051 56.0263C57.141 56.282 54.9069 58.7969 51.2794 64.161L50.5617 65.2228C50.4955 65.3209 50.4103 65.4051 50.311 65.4706C50.2118 65.5362 50.1004 65.5819 49.9833 65.605C49.8661 65.6281 49.7455 65.6282 49.6283 65.6054C49.5111 65.5825 49.3996 65.5371 49.3002 65.4717L47.7862 64.4761C47.6867 64.4108 47.6013 64.3269 47.5348 64.229C47.4683 64.1312 47.4219 64.0214 47.3985 63.9059C47.375 63.7905 47.3749 63.6715 47.3981 63.556C47.4213 63.4405 47.4674 63.3306 47.5336 63.2326L48.2514 62.1708C50.0407 59.5246 51.6867 57.3203 53.6329 55.6586C51.6685 55.0408 50.0612 53.6269 49.2115 51.7959C48.4618 52.1782 47.6235 52.4148 46.7238 52.4148H43.0838C41.6801 52.4148 40.4118 51.8755 39.4438 51.0155C38.4746 51.8766 37.2063 52.4159 35.8038 52.4159H32.1638C31.5222 52.4159 30.9159 52.287 30.3438 52.0851V60.823C30.3438 64.6297 31.8771 68.2794 34.6082 70.9715L37.6226 73.9439V81.1199H66.7403V73.9484L70.8251 69.9209C72.8735 67.9013 74.0241 65.1623 74.0238 62.3065L74.0215 52.4148ZM70.3803 42.3135V29.0939C70.3803 28.1027 69.5659 27.2999 68.5603 27.2999H64.9203C63.9148 27.2999 63.1003 28.1027 63.1003 29.0939V41.6519H66.7403C68.0234 41.6519 69.236 41.9109 70.3803 42.3135ZM32.1638 48.8279H35.8038C36.8093 48.8279 37.6238 48.0251 37.6238 47.0339V32.6819C37.6238 31.6907 36.8093 30.8879 35.8038 30.8879H32.1638C31.1582 30.8879 30.3438 31.6907 30.3438 32.6819V47.0339C30.3438 48.0251 31.1582 48.8279 32.1638 48.8279ZM43.0826 48.8279H46.7226C47.7282 48.8279 48.5426 48.0251 48.5426 47.0339V29.0939C48.5426 28.1027 47.7282 27.2999 46.7226 27.2999H43.0826C42.0771 27.2999 41.2626 28.1027 41.2626 29.0939V47.0339C41.2626 48.0251 42.0771 48.8279 43.0826 48.8279Z" fill="#081C15"/>
<defs>
<filter id="filter0_i_556_251" x="0.39209" y="0" width="106.08" height="110.08" filterUnits="userSpaceOnUse" color-interpolation-filters="sRGB">
<feFlood flood-opacity="0" result="BackgroundImageFix"/>
<feBlend mode="normal" in="SourceGraphic" in2="BackgroundImageFix" result="shape"/>
<feColorMatrix in="SourceAlpha" type="matrix" values="0 0 0 0 0 0 0 0 0 0 0 0 0 0 0 0 0 0 127 0" result="hardAlpha"/>
<feOffset dy="5.5"/>
<feGaussianBlur stdDeviation="2"/>
<feComposite in2="hardAlpha" operator="arithmetic" k2="-1" k3="1"/>
<feColorMatrix type="matrix" values="0 0 0 0 0 0 0 0 0 0 0 0 0 0 0 0 0 0 0.5 0"/>
<feBlend mode="normal" in2="shape" result="effect1_innerShadow_556_251"/>
</filter>
</defs>
</svg>