<svg width="107" height="107" viewBox="0 0 107 107" fill="none" xmlns="http://www.w3.org/2000/svg">
<g filter="url(#filter0_i_556_251)">
<path d="M106.168 53.04C106.168 82.3332 82.4211 106.08 53.1279 106.08C23.8347 106.08 0.0878906 82.3332 0.0878906 53.04C0.0878906 23.7468 23.8347 0 53.1279 0C82.4211 0 106.168 23.7468 106.168 53.04ZM13.3479 53.04C13.3479 75.0099 31.158 92.82 53.1279 92.82C75.0978 92.82 92.9079 75.0099 92.9079 53.04C92.9079 31.0701 75.0978 13.26 53.1279 13.26C31.158 13.26 13.3479 31.0701 13.3479 53.04Z" fill="#9CA3DB"/>
</g>
<path d="M84.9446 43.5029L76.6881 29.4484C75.7754 27.8925 73.7528 27.3635 72.1762 28.2555L65.0192 32.3111L71.2115 42.8599C71.4397 43.254 71.3049 43.7415 70.9107 43.9697L69.4793 44.7787C69.0852 45.0069 68.577 44.8721 68.3488 44.4779L62.1564 33.9396L56.4309 37.1862L59.3248 42.1027C59.553 42.4968 59.4181 42.9843 59.024 43.2125L57.5926 44.0216C57.1984 44.2498 56.6902 44.1149 56.462 43.7208L53.5681 38.8146L47.8426 42.0612L54.0452 52.6099C54.2734 52.9937 54.1386 53.4915 53.7444 53.7197L52.3131 54.5288C51.9189 54.757 51.4107 54.6221 51.1825 54.228L44.9902 43.6793L39.2646 46.9258L42.1585 51.8423C42.3867 52.2365 42.2518 52.724 41.8577 52.9522L40.4263 53.7612C40.0322 53.9894 39.5239 53.8546 39.2957 53.4604L36.4018 48.5335L30.6763 51.7801L36.8686 62.3288C37.0968 62.7126 36.9619 63.2105 36.5678 63.4387L35.1364 64.2477C34.7422 64.4759 34.234 64.3411 34.0058 63.9469L27.8135 53.4293L20.6565 57.4849C19.0799 58.3873 18.5302 60.3684 19.443 61.9243L27.6994 75.9892C28.6122 77.5451 30.6348 78.0741 32.2114 77.1821L83.7414 47.9423C85.318 47.0503 85.8573 45.0588 84.9446 43.5029Z" fill="#081C15"/>
<defs>
<filter id="filter0_i_556_251" x="0.0878906" y="0" width="106.08" height="110.08" filterUnits="userSpaceOnUse" color-interpolation-filters="sRGB">
<feFlood flood-opacity="0" result="BackgroundImageFix"/>
<feBlend mode="normal" in="SourceGraphic" in2="BackgroundImageFix" result="shape"/>
<feColorMatrix in="SourceAlpha" type="matrix" values="0 0 0 0 0 0 0 0 0 0 0 0 0 0 0 0 0 0 127 0" result="hardAlpha"/>
<feOffset dy="5.5"/>
<feGaussianBlur stdDeviation="2"/>
<feComposite in2="hardAlpha" operator="arithmetic" k2="-1" k3="1"/>
<feColorMatrix type="matrix" values="0 0 0 0 0 0 0 0 0 0 0 0 0 0 0 0 0 0 0.5 0"/>
<feBlend mode="normal" in2="shape" result="effect1_innerShadow_556_251"/>
</filter>
</defs>
</svg>
